# xmcd
#
# Track frame offsets:
#	150
#	10354
#	21928
#	28002
#	35913
#	43612
#	53247
#	60906
#	71177
#	80358
#	87884
#	96154
#	108846
#	120193
#	131743
#	144175
#
# Disc length: 2088 seconds
#
# Revision: 0
# Processed by: cddbd v1.4PL0 Copyright (c) Steve Scherf et al.
# Submitted via: EasyCDDAExtractor 5.0.0.0
#
DISCID=cf082610
DTITLE=Jim Reeves - Just Call Me Lonesome
DYEAR=1999
DGENRE=Country
TTITLE0=He'll Have To Go
TTITLE1=I Love You More
TTITLE2=Have I Told You Lately That I Love You
TTITLE3='Til The End Of The World
TTITLE4=The Oaklahoma Hills
TTITLE5=I'm Getting Better
TTITLE6=Bimbo
TTITLE7=Anna Marie
TTITLE8=Billy Bayou
TTITLE9=Blue Boy
TTITLE10=Waiting For A Train
TTITLE11=When God Dips His Love In My Heart
TTITLE12=Just Call Me Lonesome
TTITLE13=If Heartaches Are In Fashion
TTITLE14=Your Old Love Letters
TTITLE15=Am I Losing You?
EXTD=
EXTT0=
EXTT1=
EXTT2=
EXTT3=
EXTT4=
EXTT5=
EXTT6=
EXTT7=
EXTT8=
EXTT9=
EXTT10=
EXTT11=
EXTT12=
EXTT13=
EXTT14=
EXTT15=
PLAYORDER=
